<svg xmlns="http://www.w3.org/2000/svg" viewBox="0 0 512.001 512.001">
  <path d="M373.166 118.1c-31.502-5.081-62.938 1.645-89.566 18.975 7.943-17.452 20.373-33.236 37.183-47.151 20.025-16.576 39.025-24.13 39.18-24.191 7.864-3.04 11.774-11.88 8.734-19.744-3.039-7.863-11.876-11.775-19.744-8.734-2.406.93-40.224 15.967-70.092 51.072-1.12-5.526-2.683-11.088-4.799-16.602-17.772-46.296-66.595-69.352-68.664-70.311-3.746-1.735-8.035-1.879-11.889-.401-3.853 1.48-6.944 4.457-8.566 8.252-.897 2.099-21.751 51.901-3.979 98.197 1.602 4.172 3.458 8.152 5.507 11.947-15.439-3.414-31.528-3.909-47.635-1.31C68.204 129.496 19.73 197.669 30.78 270.073c7.865 51.537 19.363 95.802 34.179 131.562 16.803 40.562 38.026 70.384 63.079 88.641 19.837 14.455 41.934 21.727 65.914 21.725 6.633 0 13.414-.557 20.327-1.672 15.953-2.573 29.928-8.421 41.722-17.433 11.794 9.012 25.77 14.861 41.722 17.433 31.897 5.146 60.915-1.6 86.24-20.053 25.053-18.256 46.277-48.078 63.079-88.641 14.816-35.762 26.314-80.026 34.179-131.562 11.05-72.404-37.424-140.577-108.055-151.973zM207.822 38.202c12.638 8.744 29.767 23.703 37.737 44.464 7.92 20.631 5.178 43.308 1.646 58.319-12.637-8.743-29.766-23.702-37.736-44.464-7.921-20.63-5.179-43.306-1.647-58.319zM451.04 265.467c-15.518 101.689-44.929 170.894-85.057 200.133-18.763 13.672-39.501 18.445-63.399 14.587-14.646-2.362-26.215-8.329-35.371-18.241-2.89-3.127-6.955-4.906-11.214-4.906s-8.324 1.779-11.214 4.906c-9.155 9.912-20.725 15.878-35.371 18.241-23.898 3.853-44.635-.915-63.399-14.587-40.128-29.239-69.539-98.444-85.057-200.133-8.531-55.902 28.586-108.489 82.738-117.225 5.196-.839 10.393-1.253 15.551-1.253 21.081 0 41.527 6.926 58.814 20.135 22.336 17.067 53.537 17.067 75.874 0 21.518-16.441 47.93-23.149 74.365-18.882h.001c54.154 8.737 91.27 61.324 82.739 117.225z" fill="#86a939"/>
</svg>